<svg fill="#2a7d2f"  xmlns="http://www.w3.org/2000/svg" viewBox="0 0 52.485 100"><g id="Layer_2" data-name="Layer 2"><g id="Layer_1-2" data-name="Layer 1"><path d="M2.783,63.618a107,107,0,0,0,4.772,15.11C10.736,86.68,17.4,100,26.243,100c11.928,0,19.681-23.26,21.868-30.318a112.527,112.527,0,0,0,4.076-20.775c.2-2.187.3-4.076.3-5.865A24.347,24.347,0,0,0,49.6,31.113v-.1a.1.1,0,0,0-.1-.1,21.533,21.533,0,0,0-8.847-8.251V7.157A7.127,7.127,0,0,0,33.5,0H19.085a7.127,7.127,0,0,0-7.157,7.157V21.869C5.964,24.751,0,30.616,0,42.744c0,1.192,0,2.385.1,3.578A116.763,116.763,0,0,0,2.783,63.618ZM46.62,36.183a20.332,20.332,0,0,1,1.094,6.66c0,1.392-.1,2.982-.2,4.672A42.69,42.69,0,0,1,20.179,61.63a43.16,43.16,0,0,1-12.923-.6A87.011,87.011,0,0,1,5.368,49.3a52.322,52.322,0,0,0,7.853.7,43.3,43.3,0,0,0,5.069-.3A46.676,46.676,0,0,0,46.62,36.183ZM43.738,67.5a42.461,42.461,0,0,1-21.273,8.449,40.172,40.172,0,0,1-10.934-.3A97.556,97.556,0,0,1,8.35,66.1a43.231,43.231,0,0,0,12.227.3A46.858,46.858,0,0,0,46.521,55.169,121.011,121.011,0,0,1,43.738,67.5ZM26.243,95.129c-3.778,0-8.45-5.467-12.625-14.413,1.392.1,2.883.2,4.275.2a43.3,43.3,0,0,0,5.069-.3,47.548,47.548,0,0,0,18.39-5.865C36.779,87.078,30.915,95.129,26.243,95.129ZM19.085,4.871H33.4a2.418,2.418,0,0,1,2.385,2.385V20.577a32.426,32.426,0,0,0-9.542-1.492A36.918,36.918,0,0,0,16.7,20.278V7.157A2.334,2.334,0,0,1,19.085,4.871ZM16.4,25.249c.3-.1.7-.2.994-.3a34.182,34.182,0,0,1,8.847-1.093,26.965,26.965,0,0,1,8.747,1.392l1.094.4a5.37,5.37,0,0,1,1.093.5h0a18.025,18.025,0,0,1,7.058,5.567A42.665,42.665,0,0,1,17.594,45.03a42.619,42.619,0,0,1-12.823-.6c0-.5-.1-.994-.1-1.491C4.871,33.8,8.648,27.833,16.4,25.249Z"></path></g></g></svg>