<svg fill="#2a7d2f"  xmlns="http://www.w3.org/2000/svg" viewBox="0 0 93.749 100"><g id="Layer_2" data-name="Layer 2"><g id="Layer_1-2" data-name="Layer 1"><path d="M90.624,0H25a3.128,3.128,0,0,0-3.125,3.125V25H25V3.125H37.5v6.25H29.686a1.563,1.563,0,0,0-1.562,1.563V25h3.125V12.5H37.5v3.125a3.128,3.128,0,0,0,3.125,3.125H75a3.129,3.129,0,0,0,3.125-3.125V12.5h6.25V50H87.5V10.938a1.563,1.563,0,0,0-1.563-1.563H78.124V3.125h12.5v93.75H25V87.5H21.874V98.438A1.563,1.563,0,0,0,23.436,100H90.624a3.129,3.129,0,0,0,3.125-3.125V3.125A3.129,3.129,0,0,0,90.624,0ZM75,15.625H40.624V3.125H75Z"></path><path d="M87.5,53.125H84.374V75H68.749a1.563,1.563,0,0,0-1.563,1.562V90.625H31.249V87.5H28.124v4.688a1.563,1.563,0,0,0,1.562,1.562H68.749a1.684,1.684,0,0,0,.214-.014l.047-.008.025,0a.211.211,0,0,0,.029-.006.247.247,0,0,0,.041-.009l.013,0c.042-.011.084-.022.126-.036l0,0a1.186,1.186,0,0,0,.129-.05h0a1.33,1.33,0,0,0,.125-.063h0c.018-.011.039-.022.058-.035l.023-.015.037-.025.019-.014c.014-.01.027-.019.039-.029l.036-.028.022-.017c.019-.016.038-.031.056-.048L86.988,77.716c.026-.024.051-.049.075-.074.006-.008.014-.014.02-.022s.041-.045.06-.068l.01-.013c.022-.026.043-.055.061-.081.007-.008.011-.016.018-.025s.029-.045.043-.069a.127.127,0,0,0,.013-.022.942.942,0,0,0,.047-.089l.012-.025c.011-.023.022-.048.033-.073l.011-.027c.012-.031.023-.064.034-.1l.005-.014c.009-.029.017-.059.025-.089a.2.2,0,0,1,.006-.023,1.475,1.475,0,0,0,.033-.208l0-.025,0-.088V53.125Zm-17.188,25H81.894l-7.587,6.9-4,3.632Z"></path><rect x="43.749" y="7.813" width="3.125" height="3.125"></rect><rect x="68.749" y="7.813" width="3.125" height="3.125"></rect><path d="M76.561,25H40.624a1.563,1.563,0,0,0-1.563,1.562v6.25h3.125V28.125H75V50H51.561v3.125h25a1.563,1.563,0,0,0,1.563-1.563v-25A1.563,1.563,0,0,0,76.561,25Z"></path><rect x="49.999" y="59.375" width="17.188" height="3.125"></rect><rect x="70.311" y="59.375" width="9.375" height="3.125"></rect><rect x="45.311" y="68.75" width="17.188" height="3.125"></rect><rect x="65.624" y="68.75" width="14.063" height="3.125"></rect><rect x="37.499" y="78.125" width="26.563" height="3.125"></rect><rect x="49.999" y="7.813" width="15.625" height="3.125"></rect><path d="M25,84.375a1.551,1.551,0,0,0,.937-.313l6.9-5.171A38.927,38.927,0,0,0,47.863,54.43l2.112-11.971a1.561,1.561,0,0,0-.8-1.65l-23.437-12.5a1.564,1.564,0,0,0-1.471,0L.827,40.809a1.563,1.563,0,0,0-.8,1.65l2.1,11.886A38.955,38.955,0,0,0,16.957,78.664l7.1,5.394A1.56,1.56,0,0,0,25,84.375ZM5.2,53.8,3.3,43.033,25,31.458,46.7,43.033,44.785,53.886A35.82,35.82,0,0,1,30.957,76.391l-5.952,4.464-6.159-4.68A35.833,35.833,0,0,1,5.2,53.8Z"></path><path d="M30.991,73.037a28.964,28.964,0,0,0,11.183-18.2l1.55-8.778a1.561,1.561,0,0,0-.8-1.65L35.1,40.242,33.635,43l6.815,3.636L39.1,54.3a25.855,25.855,0,0,1-9.979,16.244l-4.113,3.084-4.266-3.242a25.863,25.863,0,0,1-9.851-16.147l-1.342-7.6L16.36,43l-1.471-2.758L7.075,44.409a1.563,1.563,0,0,0-.8,1.65l1.536,8.716A28.987,28.987,0,0,0,18.847,72.869l5.206,3.954a1.563,1.563,0,0,0,1.883.007Z"></path><path d="M25,38.394l5.517,2.942,1.471-2.758-6.253-3.334a1.558,1.558,0,0,0-1.471,0l-6.248,3.333,1.47,2.757Z"></path><path d="M23.377,62.5h.059a1.562,1.562,0,0,0,1.175-.533l10.938-12.5L33.2,47.409l-9.669,11.05L20,53.75l-2.5,1.875,4.687,6.25A1.569,1.569,0,0,0,23.377,62.5Z"></path><rect x="23.436" y="43.75" width="3.125" height="3.125"></rect><rect x="23.436" y="65.625" width="3.125" height="3.125"></rect></g></g></svg>
