<svg fill="#95cd81" xmlns="http://www.w3.org/2000/svg" viewBox="0 0 118.838 100"><g id="Layer_2" data-name="Layer 2"><g id="Layer_1-2" data-name="Layer 1"><path d="M70.434,10.765c-2.258-.608-4.135-2.3-5.951-3.942-1.74-1.572-3.539-3.2-5.064-3.2s-3.328,1.628-5.069,3.2c-1.808,1.636-3.677,3.326-5.917,3.933-2.35.625-4.887.088-7.34-.432-2.236-.474-4.549-.963-5.764-.26-1.265.735-2,3.013-2.714,5.217-.763,2.357-1.551,4.794-3.226,6.483-1.7,1.687-4.137,2.475-6.5,3.238-2.2.713-4.482,1.449-5.218,2.716-.7,1.215-.212,3.526.262,5.762a22.866,22.866,0,0,1,.705,5.373h4.116A38.89,38.89,0,0,1,76.69,17V10.559A13.892,13.892,0,0,1,70.434,10.765Z"></path><polygon points="7.606 60.449 18.4 60.449 100.438 60.449 111.232 60.449 111.232 43.178 7.606 43.178 7.606 60.449"></polygon><polygon points="16.241 64.766 9.26 64.766 16.241 76.402 16.241 64.766"></polygon><path d="M0,82.038H14.587L4.224,64.766H0L3.134,72.6a2.169,2.169,0,0,1,0,1.6Z"></path><path d="M101.469,30.224H91.734a38.212,38.212,0,0,1,4.343,8.636h4.116a23.016,23.016,0,0,1,.707-5.386A30.052,30.052,0,0,0,101.469,30.224Z"></path><path d="M59.419,25.907A25.844,25.844,0,0,0,36.989,38.86h44.86A25.844,25.844,0,0,0,59.419,25.907Z"></path><path d="M91.461,38.86a33.724,33.724,0,0,0-5.094-8.636H80.578a30.294,30.294,0,0,1,6.144,8.636Z"></path><path d="M76.69,27V21.9A34.554,34.554,0,0,0,38.7,24.167,34.935,34.935,0,0,0,27.381,38.86h4.735A30.229,30.229,0,0,1,76.69,27Z"></path><path d="M98.279,77.82V64.766h-2.2A38.892,38.892,0,0,1,36.111,82.915,39.269,39.269,0,0,1,22.759,64.766h-2.2V77.82c.715.275,1.5.526,2.306.786,2.372.762,4.824,1.55,6.518,3.243s2.469,4.132,3.232,6.489c.712,2.2,1.449,4.482,2.716,5.218,1.214.7,3.525.212,5.762-.262,2.448-.519,4.98-1.055,7.313-.432,2.257.608,4.134,2.3,5.949,3.942,1.74,1.571,3.539,3.2,5.065,3.2s3.328-1.628,5.069-3.2c1.808-1.636,3.677-3.327,5.916-3.933,2.351-.624,4.887-.088,7.341.432,2.236.474,4.549.963,5.764.26,1.264-.735,2-3.013,2.714-5.217.762-2.357,1.551-4.8,3.226-6.483,1.7-1.7,4.152-2.487,6.523-3.249C96.782,78.346,97.564,78.1,98.279,77.82Z"></path><polygon points="102.597 76.402 109.578 64.766 102.597 64.766 102.597 76.402"></polygon><path d="M118.838,64.766h-4.225L104.251,82.038h14.587L115.7,74.2a2.159,2.159,0,0,1,0-1.6Z"></path><path d="M59.419,77.72a25.842,25.842,0,0,0,22.43-12.954H36.989A25.842,25.842,0,0,0,59.419,77.72Z"></path><path d="M27.381,64.766A34.932,34.932,0,0,0,38.7,79.46a34.569,34.569,0,0,0,41.434,0A34.932,34.932,0,0,0,91.457,64.766H86.722a30.216,30.216,0,0,1-54.606,0Z"></path><path d="M81.008,25.907h25.906V7.371L93.329,20.957a2.159,2.159,0,0,1-3.053,0h0L83.8,14.48l3.053-3.053,4.95,4.95L106.914,1.265V0H81.008Z"></path></g></g></svg>
