<svg xmlns="http://www.w3.org/2000/svg" viewBox="0 0 40 100"><g id="Layer_2" data-name="Layer 2"><g id="Layer_1-2" data-name="Layer 1"><path d="M38.334,3.333H1.667A1.667,1.667,0,1,1,1.667,0H38.334a1.667,1.667,0,0,1,0,3.333" fill-rule="evenodd"></path><path d="M38.334,13.333H1.667a1.667,1.667,0,1,1,0-3.333,3.334,3.334,0,0,0,0-6.667A1.667,1.667,0,1,1,1.667,0,6.674,6.674,0,0,1,8.334,6.667,6.617,6.617,0,0,1,7.439,10H32.562A6.664,6.664,0,0,1,38.334,0a1.667,1.667,0,0,1,0,3.333,3.334,3.334,0,1,0,0,6.667,1.667,1.667,0,0,1,0,3.333" fill-rule="evenodd"></path><path d="M10,13.333a3.334,3.334,0,1,0,3.334,3.334A3.337,3.337,0,0,0,10,13.333m0,10a6.667,6.667,0,1,1,6.667-6.666A6.673,6.673,0,0,1,10,23.333" fill-rule="evenodd"></path><path d="M30,13.333a3.334,3.334,0,1,0,3.334,3.334A3.337,3.337,0,0,0,30,13.333m0,10a6.667,6.667,0,1,1,6.667-6.666A6.673,6.673,0,0,1,30,23.333" fill-rule="evenodd"></path><path d="M11.667,80H28.333V23.333H11.667ZM30,83.333H10a1.666,1.666,0,0,1-1.667-1.666v-60A1.667,1.667,0,0,1,10,20H30a1.667,1.667,0,0,1,1.667,1.667v60A1.666,1.666,0,0,1,30,83.333Z" fill-rule="evenodd"></path><path d="M6.667,90H33.333V83.333H6.667ZM35,93.333H5a1.666,1.666,0,0,1-1.667-1.666v-10A1.667,1.667,0,0,1,5,80H35a1.667,1.667,0,0,1,1.667,1.667v10A1.666,1.666,0,0,1,35,93.333Z" fill-rule="evenodd"></path><path d="M3.333,96.667H36.667V93.333H3.333Zm35,3.333H1.667A1.667,1.667,0,0,1,0,98.333V91.667A1.667,1.667,0,0,1,1.667,90H38.333A1.667,1.667,0,0,1,40,91.667v6.666A1.667,1.667,0,0,1,38.333,100Z" fill-rule="evenodd"></path><path d="M30,43.333A21.691,21.691,0,0,1,8.334,21.667a1.667,1.667,0,1,1,3.333,0A18.355,18.355,0,0,0,30,40a1.667,1.667,0,1,1,0,3.333" fill-rule="evenodd"></path><path d="M30,63.333A21.691,21.691,0,0,1,8.334,41.667a1.667,1.667,0,1,1,3.333,0A18.355,18.355,0,0,0,30,60a1.667,1.667,0,1,1,0,3.333" fill-rule="evenodd"></path><path d="M30,83.333A21.691,21.691,0,0,1,8.334,61.667a1.667,1.667,0,1,1,3.333,0A18.355,18.355,0,0,0,30,80a1.667,1.667,0,1,1,0,3.333" fill-rule="evenodd"></path></g></g></svg>