<svg fill="#95cd81" xmlns="http://www.w3.org/2000/svg" viewBox="0 0 137.397 100"><g id="Layer_2" data-name="Layer 2"><g id="Layer_1-2" data-name="Layer 1"><path d="M12.041,100H57.607a1.679,1.679,0,0,0,0-3.357H13.719V60.082a1.678,1.678,0,0,0-3.356,0v38.24A1.678,1.678,0,0,0,12.041,100Z"></path><path d="M122.066,98.322V53.408a1.679,1.679,0,0,0-3.357,0V96.643H104.561V74.471a11.338,11.338,0,0,0-22.676,0V96.643H67.7V53.408a1.678,1.678,0,1,0-3.356,0h0V98.322A1.678,1.678,0,0,0,66.024,100h54.363A1.679,1.679,0,0,0,122.066,98.322ZM85.241,96.643V74.471a7.982,7.982,0,0,1,15.964,0V96.643Z"></path><path d="M28.38,63.133A1.678,1.678,0,0,0,26.7,64.811v18.5a1.678,1.678,0,0,0,1.678,1.678h18.5a1.679,1.679,0,0,0,1.679-1.678h0v-18.5a1.679,1.679,0,0,0-1.679-1.678ZM45.2,81.632H30.058V66.489H45.2Z"></path><path d="M50.258,50.617A1.679,1.679,0,0,0,51.937,52.3h3.146a1.674,1.674,0,0,0,.331-.033,1.415,1.415,0,0,0,.5-.2c.034-.02.07-.034.1-.056a1.767,1.767,0,0,0,.254-.211l.007-.006,2.2-2.248a1.679,1.679,0,0,0-2.4-2.35l-1.709,1.745H51.937A1.679,1.679,0,0,0,50.258,50.617Z"></path><path d="M33.276,50.617A1.678,1.678,0,0,0,34.954,52.3h6.368a1.678,1.678,0,0,0,0-3.356H34.954a1.678,1.678,0,0,0-1.678,1.678Z"></path><path d="M16.293,50.617A1.679,1.679,0,0,0,17.972,52.3H24.34a1.679,1.679,0,0,0,0-3.357H17.972a1.679,1.679,0,0,0-1.679,1.678Z"></path><path d="M63.573,0H57.464a1.679,1.679,0,0,0-.044,3.357h6.153a1.679,1.679,0,0,0,0-3.357Z"></path><path d="M79.861,0H73.752a1.679,1.679,0,0,0,0,3.357H79.86A1.679,1.679,0,1,0,79.905,0h-.044Z"></path><path d="M47.283,0a9.208,9.208,0,0,0-6.558,2.717,1.678,1.678,0,0,0,2.352,2.394L43.1,5.09a5.88,5.88,0,0,1,4.185-1.733,1.679,1.679,0,0,0,0-3.357Z"></path><path d="M34.172,9.27,30.24,13.2a1.678,1.678,0,1,0,2.373,2.373h0l3.933-3.932A1.679,1.679,0,0,0,34.172,9.27Z"></path><path d="M11.642,36.547l3.932-3.933A1.678,1.678,0,0,0,13.2,30.241L9.269,34.174a1.678,1.678,0,1,0,2.373,2.373Z"></path><path d="M23.686,19.756l-3.932,3.932a1.678,1.678,0,0,0,2.373,2.373l3.934-3.932a1.678,1.678,0,1,0-2.353-2.394l-.021.021Z"></path><path d="M.012,44.278a1.283,1.283,0,0,0,.016.164,1.53,1.53,0,0,0,.058.208.941.941,0,0,0,.029.1l.007.019v0l1.138,2.909a1.632,1.632,0,0,0,.15.287,1.717,1.717,0,0,0,.091.33l1.146,2.931A1.681,1.681,0,0,0,4.21,52.3H7.357a1.679,1.679,0,1,0,0-3.357h-2l-.729-1.864a1.684,1.684,0,0,0-.151-.3,1.8,1.8,0,0,0-.09-.321L3.64,44.549,5.089,43.1a1.678,1.678,0,0,0-2.374-2.373h0L.507,42.934.5,42.939l-.013.012c-.022.023-.038.05-.059.074a1.716,1.716,0,0,0-.144.175c-.029.044-.05.091-.075.137a.988.988,0,0,0-.13.3,1.606,1.606,0,0,0-.046.154c-.011.053-.013.1-.019.153S0,44.061,0,44.118.007,44.225.012,44.278Z"></path><path d="M10.945,45.818H16.4a1.679,1.679,0,0,0,0-3.357H10.945a1.679,1.679,0,1,0-.044,3.357Z"></path><path d="M49.125,44.139a1.679,1.679,0,0,0-1.678-1.679H41.993a1.679,1.679,0,1,0-.044,3.357h5.5A1.678,1.678,0,0,0,49.125,44.139Z"></path><path d="M24.79,44.139a1.679,1.679,0,0,0,1.679,1.678h5.454a1.679,1.679,0,0,0,0-3.357H26.469A1.679,1.679,0,0,0,24.79,44.139Z"></path><path d="M54.341,40.525a1.678,1.678,0,0,0,2.374,0l3.856-3.857A1.678,1.678,0,0,0,58.2,34.3l-3.857,3.857a1.633,1.633,0,0,0-.116,2.333A.106.106,0,0,0,54.341,40.525Z"></path><path d="M71.548,23.318a1.677,1.677,0,0,0-2.372,0h0l-3.856,3.857a1.678,1.678,0,1,0,2.352,2.394l.021-.021,3.856-3.857a1.676,1.676,0,0,0,0-2.372Z"></path><path d="M80.152,12.341,76.3,16.2a1.678,1.678,0,1,0,2.373,2.373l3.857-3.857a1.678,1.678,0,0,0-2.374-2.373Z"></path><path d="M94.4.514a1.679,1.679,0,0,0-.574-.389C93.8.116,93.776.112,93.753.1a1.559,1.559,0,0,0-.239-.071,1.776,1.776,0,0,0-.23-.024c-.031,0-.061-.009-.092-.009h0a1.665,1.665,0,0,0-.33.034c-.043.008-.083.025-.125.037a1.514,1.514,0,0,0-.188.058,1.407,1.407,0,0,0-.133.07,1.707,1.707,0,0,0-.157.085,1.685,1.685,0,0,0-.174.142c-.026.023-.055.041-.08.066l-.56.561a1.631,1.631,0,0,0-.14.171,1.631,1.631,0,0,0-.171.14L87.273,5.221A1.678,1.678,0,1,0,89.646,7.6l3.543-3.544L94.23,5.089A1.678,1.678,0,1,0,96.6,2.714Z"></path><path d="M126.927,37.04a1.678,1.678,0,0,0,1.185-2.866l-3.938-3.933a1.678,1.678,0,0,0-2.371,2.376l3.938,3.932A1.68,1.68,0,0,0,126.927,37.04Z"></path><path d="M103.166,9.268a1.679,1.679,0,0,0-2.372,2.376h0l3.939,3.932a1.679,1.679,0,0,0,2.372-2.376Z"></path><path d="M116.423,26.553a1.679,1.679,0,0,0,1.186-2.866l-3.939-3.932A1.678,1.678,0,1,0,111.3,22.13h0l3.939,3.932A1.67,1.67,0,0,0,116.423,26.553Z"></path><path d="M136.9,42.951l-2.227-2.224a1.678,1.678,0,0,0-2.371,2.376l1.038,1.036-1.037,1.038a1.53,1.53,0,0,1-.577.577l-1.039,1.038-1.038-1.038a1.679,1.679,0,0,0-2.374,2.374l2.226,2.225a1.678,1.678,0,0,0,2.373,0h0l2.225-2.225a1.516,1.516,0,0,1,.577-.577l2.225-2.225a1.678,1.678,0,0,0,0-2.373v0Z"></path><path d="M121.793,37.893l-4.717-4.717a1.678,1.678,0,0,0-2.395,2.352l.022.021,4.717,4.717a1.678,1.678,0,1,0,2.373-2.373Z"></path><path d="M102.123,20.6a1.678,1.678,0,0,0,0,2.373h0l4.717,4.716a1.678,1.678,0,0,0,2.373-2.373L104.5,20.6a1.678,1.678,0,0,0-2.373,0Z"></path><path d="M93.215,10.019a1.683,1.683,0,0,0-1.191.5l-2.2,2.248a1.678,1.678,0,1,0,2.4,2.349l1.017-1.037,1.026,1.027a1.678,1.678,0,0,0,2.373-2.374L94.41,10.511A1.669,1.669,0,0,0,93.215,10.019Z"></path><path d="M68.938,34.081,64.119,39a1.679,1.679,0,0,0,2.4,2.35l4.819-4.918a1.678,1.678,0,1,0-2.4-2.349Z"></path><path d="M76.971,25.884a1.678,1.678,0,0,0,2.373,2.374l.024-.024,4.819-4.918a1.678,1.678,0,0,0-2.4-2.349Z"></path></g></g></svg>