<svg xmlns="http://www.w3.org/2000/svg" viewBox="0 0 109.323 100"><g id="Layer_2" data-name="Layer 2"><g id="Layer_1-2" data-name="Layer 1"><path d="M107.5,96.356h-16c4.911,0,8.906-3.607,8.906-8.039a7.639,7.639,0,0,0-2.99-5.986A1.82,1.82,0,0,1,98,79.164a16.06,16.06,0,0,0,10.922-15.379c0-8.854-6.886-16.059-15.349-16.059a1.824,1.824,0,0,1-1.822-1.817A14.367,14.367,0,0,0,79.741,31.687a1.811,1.811,0,0,1-.253-.079c-2.482-.8-5.428-1.053-7.669.26-2.028,1.191-3.32,3.588-3.838,7.127a1.82,1.82,0,0,1-1.8,1.558,1.713,1.713,0,0,1-.267-.019,1.821,1.821,0,0,1-1.539-2.066c.688-4.7,2.582-7.986,5.628-9.76,3.495-2.031,7.473-1.413,9.449-.9,7.421-8.615-5.007-19.832-13-12.046A1.822,1.822,0,0,1,63.364,14.6,15.5,15.5,0,0,0,48.062,0C39.6,0,32.714,7.192,32.714,16.032A15.606,15.606,0,0,0,33,19.021a1.824,1.824,0,0,1-2.289,2.1C17.4,17.327,6.578,32.2,13.286,44.5c3.791-.194,15.124.115,20.277,10.118a1.822,1.822,0,0,1-3.24,1.669c-4.751-9.225-16.69-8.19-17.738-8.082C5.518,49.93.4,56.731.4,64.415A16.757,16.757,0,0,0,8.535,78.957a1.824,1.824,0,0,1,.139,3.064,7.7,7.7,0,0,0-3.386,6.3c0,4.432,3.995,8.039,8.906,8.039H1.822a1.822,1.822,0,0,0,0,3.644H107.5a1.822,1.822,0,0,0,0-3.644Zm-69.928,0-7.636-8.4L15.553,89.192c-.053.005-.106.007-.158.007a1.822,1.822,0,0,1-.155-3.637l12.122-1.043L16.208,68.706a1.822,1.822,0,1,1,2.979-2.1L29.714,81.53l2.959-15.069a1.822,1.822,0,1,1,3.576.7l-3.6,18.352L42.5,96.356Zm20.9-51.379a1.83,1.83,0,0,1-.248.918l-7.173,12.3,3.63,2.346a1.824,1.824,0,0,1,.833,1.531V96.356H51.867v-33.3L39.223,54.888a1.823,1.823,0,0,1-.771-1.062L33.686,35.913a1.822,1.822,0,1,1,3.521-.936L41.793,52.21l6.191,4,6.841-11.728v-14.3a1.822,1.822,0,0,1,3.644,0ZM75.312,84.124,68.331,96.356h-4.2l7.809-13.682L65.9,61.08a1.822,1.822,0,0,1,3.509-.982l4.427,15.826L79.7,53.391a1.822,1.822,0,1,1,3.527.919L77.042,78.087l12-9.555a1.822,1.822,0,0,1,2.271,2.851Z"></path></g></g></svg>