<svg fill="#95cd81" xmlns="http://www.w3.org/2000/svg" viewBox="0 0 71.493 100"><g id="Layer_2" data-name="Layer 2"><g id="Layer_1-2" data-name="Layer 1"><path d="M35.762,100a2.423,2.423,0,0,0,2.39-2.39V80.976H69.128a2.294,2.294,0,0,0,1.992-1.1,2.634,2.634,0,0,0,.2-2.29L62.057,56.275v-.1L37.953,1.394A2.289,2.289,0,0,0,35.762,0,2.452,2.452,0,0,0,33.57,1.394L13.152,48.008h0L.2,77.59a2.366,2.366,0,0,0,.2,2.29,2.3,2.3,0,0,0,1.992,1.1H33.371V97.61A2.36,2.36,0,0,0,35.762,100ZM23.81,35.657a48.447,48.447,0,0,0,21.314-5.876l11.355,26a47.094,47.094,0,0,1-11.255,1.394,45.274,45.274,0,0,1-26.992-8.964ZM43.232,25.4A46.371,46.371,0,0,1,26,30.777l9.761-22.51ZM16.339,52.689a49.875,49.875,0,0,0,28.885,9.263,48.651,48.651,0,0,0,13.147-1.793L65.443,76.3H6.08Z"></path><path d="M28.69,38.546c-4.582,0-4.582,7.171,0,7.171S33.272,38.546,28.69,38.546Z"></path><path d="M40.742,36.155c-4.582,0-4.582,7.172,0,7.172C45.423,43.227,45.423,36.155,40.742,36.155Z"></path><path d="M19.925,60.06c-4.582,0-4.582,7.171,0,7.171S24.507,60.06,19.925,60.06Z"></path><path d="M30.483,64.641c-4.582,0-4.582,7.172,0,7.172S35.064,64.641,30.483,64.641Z"></path><path d="M41.738,73.705c4.581,0,4.581-7.171,0-7.171S37.156,73.705,41.738,73.705Z"></path><path d="M53.192,72.908c4.582,0,4.582-7.171,0-7.171S48.61,72.908,53.192,72.908Z"></path></g></g></svg>