<svg fill="#95cd81" xmlns="http://www.w3.org/2000/svg" viewBox="0 0 96.206 100"><g id="Layer_2" data-name="Layer 2"><g id="Layer_1-2" data-name="Layer 1"><path d="M48.1,19.167c4.562,0,4.562-7.141,0-7.141S43.541,19.167,48.1,19.167Z"></path><path d="M27.771,26.507c4.562,0,4.562-7.141,0-7.141S23.208,26.507,27.771,26.507Z"></path><path d="M75.477,66.576c4.562,0,4.562-7.141,0-7.141S70.915,66.576,75.477,66.576Z"></path><path d="M16.96,45.252c4.562,0,4.562-7.141,0-7.141S12.4,45.252,16.96,45.252Z"></path><path d="M79.246,45.252c4.562,0,4.562-7.141,0-7.141S74.684,45.252,79.246,45.252Z"></path><path d="M20.729,66.576c4.562,0,4.562-7.141,0-7.141S16.167,66.576,20.729,66.576Z"></path><path d="M68.435,26.507c4.562,0,4.562-7.141,0-7.141S63.873,26.507,68.435,26.507Z"></path><path d="M1.785,44.756a8.873,8.873,0,0,1-.992.893A2.713,2.713,0,0,0,0,47.533a2.82,2.82,0,0,0,.893,1.885,7.5,7.5,0,0,1,.892.892,9.826,9.826,0,0,1,2.48,4.959,10.629,10.629,0,0,1-.595,5.554,10.75,10.75,0,0,0-.595,1.091l-.1.2a2.326,2.326,0,0,0-.1,1.983,2.3,2.3,0,0,0,1.488,1.389,6.017,6.017,0,0,1,1.19.5,10.163,10.163,0,0,1,4.067,3.868A9.3,9.3,0,0,1,10.91,75.3a6.694,6.694,0,0,1-.2,1.388,2.5,2.5,0,0,0,.6,1.984,2.341,2.341,0,0,0,1.884.793,5.6,5.6,0,0,1,1.289.1,10.191,10.191,0,0,1,3.075.991,11.381,11.381,0,0,0-.595,3.67v2.976a12.728,12.728,0,0,0,4.959,10.116A13,13,0,0,0,29.556,100a11.589,11.589,0,0,0,3.174-.4h0c.1,0,.2,0,.2-.1a47.926,47.926,0,0,0,11.7-4.86,9.027,9.027,0,0,0,6.942,0,45.726,45.726,0,0,0,11.6,4.86c.1,0,.2.1.3.1h0a11.589,11.589,0,0,0,3.174.4,11.957,11.957,0,0,0,7.637-2.678,12.728,12.728,0,0,0,4.959-10.116V84.23a11.408,11.408,0,0,0-.595-3.67,11.166,11.166,0,0,1,3.074-.991,5.616,5.616,0,0,1,1.29-.1,2.708,2.708,0,0,0,1.884-.793,2.4,2.4,0,0,0,.595-1.984c-.1-.495-.1-.892-.2-1.388a9.161,9.161,0,0,1,1.289-5.356,10.17,10.17,0,0,1,4.067-3.868,11.538,11.538,0,0,1,1.091-.5,2.386,2.386,0,0,0,1.388-3.372l-.1-.2a9.287,9.287,0,0,1-.5-.992,9.7,9.7,0,0,1-.595-5.554,9.818,9.818,0,0,1,2.48-4.959,8.849,8.849,0,0,1,.991-.893,2.71,2.71,0,0,0,.794-1.885,2.818,2.818,0,0,0-.893-1.884,7.59,7.59,0,0,1-.892-.893,9.818,9.818,0,0,1-2.48-4.959,10.63,10.63,0,0,1,.595-5.554,10.73,10.73,0,0,0,.595-1.091l.1-.2a2.325,2.325,0,0,0,.1-1.984,2.3,2.3,0,0,0-1.488-1.388,6.113,6.113,0,0,1-1.19-.5,10.17,10.17,0,0,1-4.067-3.868A9.3,9.3,0,0,1,85.3,19.961a6.713,6.713,0,0,1,.2-1.389,2.5,2.5,0,0,0-.595-1.983,2.075,2.075,0,0,0-1.884-.794,5.671,5.671,0,0,1-1.29-.1,10.153,10.153,0,0,1-5.058-2.182,9.282,9.282,0,0,1-3.074-4.761l-.3-1.19A2.071,2.071,0,0,0,72.2,5.976a2.31,2.31,0,0,0-1.984-.2l-.595.2a3.074,3.074,0,0,1-.793.2,10.927,10.927,0,0,1-5.654-.3,10.209,10.209,0,0,1-4.562-3.372,5.645,5.645,0,0,1-.5-.794l-.1-.595A2.466,2.466,0,0,0,56.434.025a2.485,2.485,0,0,0-1.884.5l-.3.3c-.3.2-.5.4-.793.6a9.962,9.962,0,0,1-10.712,0,5.58,5.58,0,0,1-.793-.595l-.3-.3a2.485,2.485,0,0,0-1.884-.5,2.068,2.068,0,0,0-1.587,1.091l-.3.4c-.2.3-.3.5-.5.793a10.708,10.708,0,0,1-4.463,3.373,9.7,9.7,0,0,1-5.554.4l-.893-.3-.6-.2a2.335,2.335,0,0,0-1.983.3,2.435,2.435,0,0,0-1.091,1.686,7.745,7.745,0,0,1-.3,1.289,9.431,9.431,0,0,1-3.074,4.662A9.345,9.345,0,0,1,14.381,15.7a5.658,5.658,0,0,1-1.289.1,2.712,2.712,0,0,0-1.885.794,2.4,2.4,0,0,0-.6,1.983c.1.5.1.893.2,1.389a9.163,9.163,0,0,1-1.29,5.356,10.161,10.161,0,0,1-4.066,3.868,11.667,11.667,0,0,1-1.091.5,2.387,2.387,0,0,0-1.389,3.373l.1.2a9.385,9.385,0,0,1,.5.992,9.709,9.709,0,0,1,.6,5.554A9.272,9.272,0,0,1,1.785,44.756ZM31.639,94.545c-.1,0-.1,0-.2.1A7.646,7.646,0,0,1,24.8,93.256a8.133,8.133,0,0,1-3.173-6.348V83.933a7.336,7.336,0,0,1,.892-3.571,6.749,6.749,0,0,1,.694-1.091c.1-.1.2-.2.2-.3a4.329,4.329,0,0,0,.595-.7l.3-.3a2.63,2.63,0,0,1,.595-.5c.1-.1.2-.2.3-.2a2.984,2.984,0,0,1,.793-.4c.1,0,.2-.1.3-.1a5.546,5.546,0,0,1,1.19-.4h.1a3.577,3.577,0,0,1,1.091-.2h1.091a9.79,9.79,0,0,1,1.686.2c.1,0,.1,0,.2.1A36.471,36.471,0,0,1,36.3,77.982c.5.2.893.4,1.389.595a23.785,23.785,0,0,1,2.777,1.289l-.1.1c-.2.3-.5.695-.694.992-.1.1-.1.3-.2.4-.1.3-.3.595-.4.893-.1.2-.1.3-.2.5a2.946,2.946,0,0,0-.2.992c0,.1-.1.3-.1.4a6.973,6.973,0,0,0-.1,1.389,6.051,6.051,0,0,0,.1,1.388c0,.1.1.3.1.4.1.3.1.694.2.992.1.2.1.3.2.5a3.563,3.563,0,0,0,.4.892c.1.1.1.3.2.4a6.614,6.614,0,0,0,.694,1.091.1.1,0,0,0,.1.1A44.744,44.744,0,0,1,31.639,94.545Zm14.084-4.959a4.87,4.87,0,0,1-2.381-4.166,4.756,4.756,0,0,1,2.48-4.165,3.492,3.492,0,0,1,.892-.4,3.864,3.864,0,0,1,2.976,0h0a3.492,3.492,0,0,1,.892.4,4.834,4.834,0,0,1,0,8.331A4.74,4.74,0,0,1,45.723,89.586Zm28.762-2.678a7.971,7.971,0,0,1-9.819,7.736c-.1,0-.1,0-.2-.1a45.069,45.069,0,0,1-8.827-3.372l.1-.1c.2-.3.5-.695.694-.992.1-.1.1-.3.2-.4.1-.3.3-.595.4-.892.1-.2.1-.3.2-.5a2.941,2.941,0,0,0,.2-.992c0-.1.1-.3.1-.4a7.038,7.038,0,0,0,.1-1.388,6.115,6.115,0,0,0-.1-1.389c0-.1-.1-.3-.1-.4-.1-.3-.1-.694-.2-.992,0-.2-.1-.3-.2-.5-.1-.3-.3-.6-.4-.893-.1-.1-.1-.3-.2-.4-.2-.4-.5-.793-.694-1.19h0c.1-.1.2-.1.3-.2l3.869-1.786c.1,0,.2-.1.3-.1,1.389-.5,2.876-.992,4.364-1.388.1,0,.1,0,.2-.1a.6.6,0,0,0,.4-.1,7.918,7.918,0,0,1,8.53,4.265,7.336,7.336,0,0,1,.892,3.571v2.975ZM8.926,40.59a14.341,14.341,0,0,0-.694-7.637A14.6,14.6,0,0,0,13.588,27.6a14.822,14.822,0,0,0,1.983-7.34,15.9,15.9,0,0,0,6.943-3.174,14.6,14.6,0,0,0,4.364-6.248,14.349,14.349,0,0,0,7.637-.694,14.622,14.622,0,0,0,6.249-4.364,14.9,14.9,0,0,0,14.678,0,14.616,14.616,0,0,0,6.249,4.364,14.161,14.161,0,0,0,7.637.6,14.6,14.6,0,0,0,4.364,6.248,13.564,13.564,0,0,0,6.942,3.174,14.721,14.721,0,0,0,7.34,12.7,15.4,15.4,0,0,0-.694,7.637,14.083,14.083,0,0,0,3.273,6.943,15.122,15.122,0,0,0-3.273,6.843,14.339,14.339,0,0,0,.694,7.637,14.6,14.6,0,0,0-5.356,5.356,14.823,14.823,0,0,0-1.984,7.34A19.374,19.374,0,0,0,76.568,75.9a10.88,10.88,0,0,0-.992-1.091c-.1-.1-.1-.2-.2-.2a17.285,17.285,0,0,0-1.488-1.29,2.174,2.174,0,0,1-.5-.3c-.4-.2-.793-.5-1.19-.695-.2-.1-.5-.2-.694-.3a5.62,5.62,0,0,0-1.19-.4c-.3-.1-.5-.1-.794-.2a4.987,4.987,0,0,0-1.19-.2c-.3,0-.5-.1-.794-.1H65.559c-.694.1-1.389.2-1.984.3h0c-.1,0-.2,0-.2.1A45.773,45.773,0,0,0,53.161,75.6h-.1c-.5.3-.893.5-1.389.794-.1,0-.2-.1-.3-.2a8.63,8.63,0,0,0-4.761-.4,9.213,9.213,0,0,0-1.587.4h0c-.1,0-.2.1-.3.2-.4-.2-.794-.5-1.19-.694-.1,0-.1-.1-.2-.1l-2.975-1.487a37.911,37.911,0,0,0-7.34-2.579c-.1,0-.2-.1-.3-.1h0a7.386,7.386,0,0,0-1.984-.3H28.763c-.2,0-.5.1-.7.1-.4.1-.793.1-1.19.2a6.335,6.335,0,0,0-.694.2c-.4.1-.794.3-1.19.4-.2.1-.5.2-.7.3a7.459,7.459,0,0,0-1.19.695l-.6.3c-.5.4-1.091.794-1.488,1.19l-.3.3-.992.992a13.949,13.949,0,0,0-4.066-1.29,14.548,14.548,0,0,0-1.984-7.339,14.6,14.6,0,0,0-5.356-5.356,15.405,15.405,0,0,0,.7-7.637,14.1,14.1,0,0,0-3.273-6.942A12.63,12.63,0,0,0,8.926,40.59Z"></path><path d="M30.151,32.061a7.016,7.016,0,0,1-.893,4.463A7.54,7.54,0,0,1,25.886,39.5,2.091,2.091,0,0,0,24.6,41.086a2.376,2.376,0,0,0,.4,1.984,8.049,8.049,0,0,1,.991,1.785,7.349,7.349,0,0,1,.5,2.48A7.612,7.612,0,0,1,25.093,51.7a2.374,2.374,0,0,0-.4,1.983,2.6,2.6,0,0,0,1.289,1.587,6.642,6.642,0,0,1,3.373,2.976,7.564,7.564,0,0,1,.892,4.463,2.585,2.585,0,0,0,.7,1.983,2.261,2.261,0,0,0,1.884.695,7.014,7.014,0,0,1,4.463.892,7.544,7.544,0,0,1,2.976,3.373,2.087,2.087,0,0,0,1.587,1.289,2.374,2.374,0,0,0,1.983-.4,7.294,7.294,0,0,1,8.629,0,2.368,2.368,0,0,0,1.388.5,1.264,1.264,0,0,0,.6-.1,2.6,2.6,0,0,0,1.586-1.289,6.651,6.651,0,0,1,2.976-3.373,6.888,6.888,0,0,1,4.463-.892,2.261,2.261,0,0,0,1.884-.695,2.352,2.352,0,0,0,.7-1.983,7.014,7.014,0,0,1,.892-4.463,7.114,7.114,0,0,1,3.472-2.976,2.087,2.087,0,0,0,1.289-1.587,2.374,2.374,0,0,0-.4-1.983,7.554,7.554,0,0,1,0-8.728,2.377,2.377,0,0,0,.4-1.984A2.6,2.6,0,0,0,70.419,39.4a6.639,6.639,0,0,1-3.372-2.975,6.889,6.889,0,0,1-.893-4.463,2.585,2.585,0,0,0-.694-1.984,2.263,2.263,0,0,0-1.885-.694,7.016,7.016,0,0,1-4.463-.893,7.545,7.545,0,0,1-2.975-3.372A2.091,2.091,0,0,0,54.55,23.73a2.375,2.375,0,0,0-1.984.4,7.29,7.29,0,0,1-8.629,0,2.374,2.374,0,0,0-1.983-.4,2.6,2.6,0,0,0-1.587,1.289,6.636,6.636,0,0,1-2.976,3.372,7.572,7.572,0,0,1-4.463.893,2.261,2.261,0,0,0-1.884.694A2.216,2.216,0,0,0,30.151,32.061ZM33.325,38.9a10.309,10.309,0,0,0,1.488-4.76,13.354,13.354,0,0,0,4.76-1.488,10.856,10.856,0,0,0,3.67-3.372,11.865,11.865,0,0,0,9.72,0,11.958,11.958,0,0,0,3.67,3.372,11.637,11.637,0,0,0,4.76,1.488,13.334,13.334,0,0,0,1.488,4.76,13,13,0,0,0,3.273,3.67,11.531,11.531,0,0,0-.992,4.86,13.288,13.288,0,0,0,.992,4.86c-.4.3-.694.6-1.091.892a12.165,12.165,0,0,0-2.281,2.778,10.3,10.3,0,0,0-1.488,4.76,13.346,13.346,0,0,0-4.761,1.488,11.637,11.637,0,0,0-3.669,3.273A11.531,11.531,0,0,0,48,64.493a13.288,13.288,0,0,0-4.86.992,10.547,10.547,0,0,0-3.67-3.273,11.611,11.611,0,0,0-4.761-1.488,13.333,13.333,0,0,0-1.487-4.76,10.856,10.856,0,0,0-3.372-3.67,11.531,11.531,0,0,0,.991-4.86,12.391,12.391,0,0,0-.793-4.166c-.1-.2-.2-.5-.3-.694A10.519,10.519,0,0,0,33.325,38.9Z"></path></g></g></svg>